<svg id="svg" version="1.1" width="400" height="212.5" xmlns="http://www.w3.org/2000/svg" xmlns:xlink="http://www.w3.org/1999/xlink" style="display: block;"><g id="svgg"><path id="path0" d="" stroke="none" fill="#000000" fill-rule="evenodd"></path><path id="path1" d="M333.730 204.931 C 333.590 205.071,333.475 205.275,333.475 205.384 C 333.475 205.493,333.155 206.216,332.763 206.989 C 331.883 208.728,331.653 209.564,332.055 209.564 C 332.214 209.564,332.471 209.182,332.625 208.714 C 332.779 208.247,332.964 207.864,333.037 207.864 C 333.310 207.864,334.382 205.072,334.184 204.875 C 334.060 204.751,333.889 204.772,333.730 204.931 M335.389 206.886 C 334.389 208.898,334.227 209.564,334.738 209.564 C 334.834 209.564,334.969 209.397,335.038 209.192 C 335.107 208.988,335.258 208.677,335.374 208.502 C 335.489 208.326,335.834 207.632,336.140 206.958 C 336.835 205.427,337.088 205.562,337.088 207.463 L 337.088 208.949 338.204 208.885 C 339.302 208.821,339.321 208.809,339.389 208.100 C 339.508 206.846,339.286 206.376,338.572 206.376 C 338.010 206.376,337.938 206.304,337.938 205.739 C 337.938 205.061,337.593 204.908,337.100 205.367 C 336.932 205.523,336.869 205.532,336.948 205.391 C 337.023 205.258,336.951 205.039,336.789 204.905 C 336.549 204.705,336.291 205.071,335.389 206.886 M372.864 204.933 C 372.469 205.448,370.882 208.884,370.882 209.225 C 370.882 209.867,371.435 209.563,371.716 208.767 C 371.870 208.329,372.113 207.827,372.254 207.651 C 372.750 207.036,373.470 205.054,373.270 204.854 C 373.151 204.734,372.992 204.765,372.864 204.933 M319.061 205.285 C 318.446 205.675,318.617 208.927,319.253 208.927 C 319.761 208.927,319.801 208.858,319.785 208.023 C 319.771 207.354,319.849 207.120,320.085 207.120 C 320.321 207.120,320.399 207.354,320.385 208.023 C 320.368 208.892,320.392 208.927,321.012 208.927 C 321.514 208.927,321.601 208.870,321.403 208.672 C 321.262 208.531,321.148 208.109,321.148 207.733 C 321.148 206.676,320.955 206.376,320.275 206.376 C 319.733 206.376,319.660 206.300,319.660 205.739 C 319.660 205.077,319.537 204.984,319.061 205.285 M340.329 205.242 C 340.014 205.369,339.970 205.951,340.276 205.951 C 340.394 205.951,340.489 206.518,340.489 207.226 C 340.489 207.935,340.394 208.502,340.276 208.502 C 340.159 208.502,340.064 208.597,340.064 208.714 C 340.064 208.831,340.446 208.927,340.914 208.927 C 341.382 208.927,341.764 208.831,341.764 208.714 C 341.764 208.597,341.668 208.502,341.552 208.502 C 341.428 208.502,341.339 207.793,341.339 206.801 C 341.339 205.038,341.235 204.876,340.329 205.242 M356.757 205.387 C 356.485 205.586,356.440 205.720,356.610 205.825 C 357.022 206.080,356.882 206.376,356.349 206.376 C 355.624 206.376,355.331 206.850,355.407 207.901 L 355.473 208.820 357.192 208.882 L 358.911 208.943 358.892 208.031 C 358.869 206.896,359.471 206.702,359.578 207.811 C 359.615 208.199,359.545 208.502,359.418 208.502 C 359.294 208.502,359.192 208.597,359.192 208.714 C 359.192 208.831,359.718 208.927,360.361 208.927 C 361.237 208.927,361.530 208.850,361.530 208.620 C 361.530 208.168,361.171 208.026,360.685 208.287 C 360.289 208.498,360.255 208.453,360.252 207.712 C 360.247 206.499,360.047 206.320,358.794 206.407 L 357.704 206.482 357.704 205.792 C 357.705 205.041,357.405 204.913,356.757 205.387 M392.049 205.845 C 391.759 206.288,391.534 206.376,390.694 206.376 C 389.613 206.376,389.024 206.880,389.252 207.612 C 389.313 207.809,389.271 208.114,389.159 208.289 C 389.009 208.523,388.954 208.378,388.951 207.747 C 388.947 206.641,388.661 206.376,387.471 206.376 L 386.504 206.376 386.504 207.651 C 386.504 208.881,386.523 208.927,387.053 208.927 C 387.559 208.927,387.602 208.856,387.585 208.045 C 387.573 207.468,387.669 207.128,387.863 207.061 C 388.098 206.979,388.137 207.161,388.048 207.942 C 387.940 208.902,387.952 208.927,388.524 208.927 C 388.938 208.927,389.145 209.056,389.225 209.364 C 389.423 210.121,391.368 209.878,391.460 209.085 C 391.501 208.721,391.411 208.455,391.220 208.381 C 390.974 208.287,390.960 208.161,391.152 207.747 C 391.453 207.098,391.709 207.079,391.718 207.705 C 391.732 208.741,393.092 209.374,393.794 208.672 C 394.136 208.329,394.107 206.151,393.753 205.685 C 393.335 205.135,392.461 205.216,392.049 205.845 M394.669 205.770 C 393.970 207.078,394.502 208.927,395.578 208.927 C 396.489 208.927,396.812 208.486,396.812 207.242 C 396.812 205.574,395.322 204.551,394.669 205.770 M321.945 206.141 C 321.542 206.549,321.451 207.014,321.773 207.014 C 321.883 207.014,322.003 207.420,322.039 207.917 C 322.112 208.929,323.090 209.341,323.693 208.614 C 324.066 208.165,323.782 207.922,323.263 208.246 C 322.881 208.485,322.848 208.446,322.848 207.760 C 322.848 207.238,322.944 207.014,323.167 207.014 C 323.342 207.014,323.486 206.870,323.486 206.695 C 323.486 206.520,323.342 206.376,323.167 206.376 C 322.991 206.376,322.848 206.233,322.848 206.057 C 322.848 205.633,322.405 205.674,321.945 206.141 M324.601 206.152 C 324.105 206.566,323.967 207.014,324.336 207.014 C 324.453 207.014,324.548 207.329,324.548 207.715 C 324.548 208.813,326.032 209.526,326.388 208.599 C 326.568 208.130,326.355 208.005,325.842 208.279 C 325.433 208.498,325.399 208.461,325.399 207.790 C 325.399 207.231,325.501 207.037,325.845 206.947 C 326.323 206.822,326.214 206.376,325.705 206.376 C 325.536 206.376,325.399 206.233,325.399 206.057 C 325.399 205.639,325.186 205.664,324.601 206.152 M368.786 206.259 C 368.357 206.683,368.332 206.780,368.611 206.937 C 368.797 207.041,368.967 207.486,369.006 207.970 C 369.083 208.915,370.288 209.403,370.591 208.612 C 370.764 208.161,370.516 207.932,370.198 208.250 C 369.774 208.674,369.607 208.535,369.607 207.758 C 369.607 207.156,369.688 207.014,370.032 207.014 C 370.268 207.014,370.457 206.872,370.457 206.695 C 370.457 206.518,370.268 206.376,370.032 206.376 C 369.796 206.376,369.607 206.235,369.607 206.057 C 369.607 205.620,369.377 205.676,368.786 206.259 M379.201 206.259 C 378.771 206.683,378.746 206.780,379.026 206.937 C 379.211 207.041,379.382 207.486,379.421 207.970 C 379.498 208.915,380.702 209.403,381.005 208.612 C 381.179 208.161,380.931 207.932,380.613 208.250 C 380.189 208.674,380.021 208.535,380.021 207.758 C 380.021 207.156,380.102 207.014,380.446 207.014 C 380.682 207.014,380.871 206.872,380.871 206.695 C 380.871 206.518,380.682 206.376,380.446 206.376 C 380.210 206.376,380.021 206.235,380.021 206.057 C 380.021 205.620,379.792 205.676,379.201 206.259 M381.751 206.259 C 381.322 206.683,381.297 206.780,381.576 206.937 C 381.762 207.041,381.932 207.486,381.971 207.970 C 382.048 208.915,383.253 209.403,383.556 208.612 C 383.738 208.138,383.497 207.962,383.108 208.285 C 382.828 208.517,382.784 208.449,382.784 207.784 C 382.784 207.241,382.878 207.014,383.103 207.014 C 383.278 207.014,383.422 206.870,383.422 206.695 C 383.422 206.520,383.289 206.376,383.126 206.376 C 382.963 206.376,382.775 206.233,382.707 206.057 C 382.543 205.630,382.347 205.671,381.751 206.259 M393.282 206.287 C 393.652 207.250,393.219 208.963,392.777 208.289 C 392.402 207.718,392.560 205.951,392.986 205.951 C 393.078 205.951,393.211 206.102,393.282 206.287 M395.958 207.156 C 395.963 208.167,395.765 208.567,395.406 208.268 C 395.045 207.969,395.017 206.555,395.365 206.207 C 395.707 205.866,395.954 206.260,395.958 207.156 M326.567 208.076 L 326.567 209.776 327.258 209.777 C 327.638 209.777,327.949 209.681,327.949 209.564 C 327.949 209.447,327.853 209.352,327.736 209.352 C 327.196 209.352,327.601 208.946,328.201 208.887 C 329.836 208.726,329.346 206.376,327.677 206.376 L 326.567 206.376 326.567 208.076 M329.930 206.716 C 329.782 207.104,330.214 207.454,330.640 207.290 C 330.796 207.230,330.925 207.000,330.925 206.779 C 330.925 206.276,330.119 206.226,329.930 206.716 M342.619 206.689 C 342.343 207.022,342.265 208.321,342.499 208.700 C 342.999 209.508,344.743 208.781,344.733 207.768 C 344.720 206.544,343.329 205.834,342.619 206.689 M345.215 206.642 C 345.097 206.788,345.014 207.529,345.030 208.289 L 345.058 209.671 346.121 209.671 C 347.232 209.671,347.880 208.715,346.999 208.377 C 346.724 208.271,346.736 208.153,347.091 207.521 C 347.317 207.118,347.503 206.696,347.503 206.582 C 347.503 206.278,345.466 206.331,345.215 206.642 M350.405 206.765 C 350.004 207.208,349.951 207.914,350.273 208.516 C 350.555 209.042,352.123 209.105,352.318 208.599 C 352.495 208.138,352.249 207.966,351.868 208.283 C 351.411 208.661,350.903 208.395,350.903 207.777 C 350.903 207.217,351.353 206.769,351.493 207.189 C 351.591 207.482,352.391 207.531,352.391 207.244 C 352.391 206.336,351.079 206.020,350.405 206.765 M353.170 206.518 C 352.789 206.899,353.064 207.679,353.719 208.079 C 354.333 208.453,354.357 208.500,353.932 208.501 C 353.669 208.501,353.454 208.406,353.454 208.289 C 353.454 208.172,353.310 208.077,353.135 208.077 C 352.958 208.077,352.816 208.265,352.816 208.502 C 352.816 208.940,353.993 209.114,354.818 208.798 C 355.197 208.652,355.271 207.962,354.931 207.751 C 354.779 207.657,354.787 207.519,354.957 207.314 C 355.467 206.699,353.753 205.935,353.170 206.518 M363.117 207.651 C 363.124 208.920,363.128 208.926,363.751 208.926 C 364.239 208.927,364.322 208.870,364.123 208.672 C 363.890 208.438,363.750 207.226,363.957 207.226 C 364.006 207.226,364.211 207.163,364.414 207.085 C 364.739 206.960,364.769 207.059,364.670 207.935 C 364.560 208.907,364.570 208.927,365.156 208.927 C 365.725 208.927,365.749 208.888,365.645 208.130 C 365.442 206.664,365.188 206.376,364.091 206.376 L 363.109 206.376 363.117 207.651 M366.045 206.798 C 365.320 207.959,365.823 208.977,367.077 208.887 L 368.013 208.820 368.065 207.885 C 368.146 206.435,366.743 205.680,366.045 206.798 M373.908 206.642 C 373.365 207.315,373.709 209.666,374.361 209.740 C 375.698 209.893,376.769 208.790,375.688 208.375 C 375.336 208.240,375.488 207.415,375.911 207.163 C 376.067 207.069,376.196 206.854,376.196 206.684 C 376.196 206.289,374.222 206.252,373.908 206.642 M376.428 206.871 C 375.807 208.030,376.186 208.820,377.362 208.820 C 378.233 208.820,378.435 208.749,378.499 208.417 C 378.560 208.098,378.495 208.048,378.183 208.175 C 377.445 208.477,377.153 208.403,377.081 207.893 C 377.042 207.616,377.113 207.286,377.240 207.159 C 377.406 206.994,377.471 207.001,377.471 207.184 C 377.471 207.324,377.710 207.439,378.002 207.439 C 378.296 207.439,378.533 207.316,378.533 207.163 C 378.533 206.283,376.866 206.052,376.428 206.871 M384.277 206.689 C 384.000 207.022,383.923 208.321,384.157 208.700 C 384.657 209.508,386.401 208.781,386.391 207.768 C 386.378 206.544,384.987 205.834,384.277 206.689 M357.855 208.130 C 357.804 208.393,357.762 208.177,357.762 207.651 C 357.762 207.125,357.804 206.910,357.855 207.173 C 357.905 207.436,357.905 207.867,357.855 208.130 M328.268 207.775 C 328.268 208.182,328.159 208.395,327.952 208.395 C 327.602 208.395,327.419 207.806,327.612 207.303 C 327.814 206.776,328.268 207.104,328.268 207.775 M338.682 207.775 C 338.682 208.182,338.574 208.395,338.366 208.395 C 338.017 208.395,337.834 207.806,338.027 207.303 C 338.229 206.776,338.682 207.104,338.682 207.775 M343.783 207.775 C 343.783 208.182,343.675 208.395,343.467 208.395 C 343.118 208.395,342.935 207.806,343.128 207.303 C 343.330 206.776,343.783 207.104,343.783 207.775 M356.819 207.893 C 356.780 208.169,356.652 208.376,356.536 208.353 C 356.263 208.300,356.143 207.725,356.312 207.285 C 356.504 206.784,356.908 207.268,356.819 207.893 M374.920 207.333 C 374.920 207.508,374.830 207.651,374.720 207.651 C 374.452 207.651,374.260 207.320,374.430 207.150 C 374.670 206.910,374.920 207.004,374.920 207.333 M385.441 207.775 C 385.441 208.182,385.332 208.395,385.125 208.395 C 384.776 208.395,384.592 207.806,384.786 207.303 C 384.987 206.776,385.441 207.104,385.441 207.775 M330.011 208.211 C 329.677 208.545,329.889 208.927,330.409 208.927 C 330.814 208.927,330.937 208.831,330.885 208.557 C 330.810 208.170,330.267 207.955,330.011 208.211 M347.652 208.211 C 347.318 208.545,347.530 208.927,348.050 208.927 C 348.455 208.927,348.578 208.831,348.525 208.557 C 348.451 208.170,347.908 207.955,347.652 208.211 M367.408 208.318 C 367.127 208.481,366.949 208.479,366.781 208.311 C 366.610 208.140,366.716 208.078,367.173 208.083 C 367.723 208.089,367.752 208.118,367.408 208.318 M375.133 209.164 C 375.133 209.267,374.942 209.352,374.708 209.352 C 374.474 209.352,374.283 209.217,374.283 209.053 C 374.283 208.859,374.431 208.793,374.708 208.865 C 374.942 208.926,375.133 209.061,375.133 209.164 M346.440 209.139 C 346.440 209.256,346.302 209.352,346.134 209.352 C 345.965 209.352,345.768 209.256,345.696 209.139 C 345.624 209.022,345.762 208.927,346.002 208.927 C 346.243 208.927,346.440 209.022,346.440 209.139 M390.861 209.139 C 390.861 209.256,390.670 209.352,390.436 209.352 C 390.202 209.352,390.011 209.256,390.011 209.139 C 390.011 209.022,390.202 208.927,390.436 208.927 C 390.670 208.927,390.861 209.022,390.861 209.139 " stroke="none" fill="#999999" fill-rule="evenodd"></path><path id="path2" d="" stroke="none" fill="#ffffff" fill-rule="evenodd"></path><path id="path3" d="M40.741 162.730 C 39.966 163.506,40.726 187.196,41.553 188.023 C 41.728 188.198,41.870 188.463,41.870 188.612 C 41.870 189.245,44.052 191.028,45.562 191.630 C 49.881 193.351,54.260 191.904,56.633 187.971 C 56.978 187.398,57.863 186.002,58.599 184.869 C 59.334 183.737,59.936 182.769,59.936 182.719 C 59.936 182.548,62.263 179.066,62.630 178.689 C 63.246 178.054,63.282 178.098,67.195 184.253 C 71.798 191.494,72.674 192.220,76.833 192.235 C 81.830 192.252,85.441 189.169,85.441 184.884 C 85.441 184.444,85.537 184.025,85.654 183.953 C 85.983 183.750,85.941 163.178,85.611 162.848 C 85.342 162.579,77.729 162.466,77.063 162.722 C 76.763 162.837,76.727 163.935,76.727 172.924 C 76.727 182.681,76.714 182.997,76.323 182.997 C 75.980 182.997,75.185 182.028,74.840 181.190 C 74.791 181.073,74.492 180.595,74.174 180.128 C 72.943 178.315,71.166 175.502,70.942 175.011 C 70.813 174.727,70.627 174.495,70.529 174.495 C 70.431 174.495,70.351 174.388,70.351 174.258 C 70.351 174.128,70.016 173.565,69.607 173.007 C 69.198 172.450,68.863 171.933,68.863 171.858 C 68.863 171.783,68.552 171.262,68.172 170.700 C 67.792 170.139,67.242 169.278,66.950 168.788 C 64.059 163.939,62.358 163.711,59.841 167.836 C 59.175 168.925,57.311 171.850,56.626 172.878 C 56.401 173.216,56.123 173.646,56.009 173.834 C 55.732 174.290,53.827 177.277,52.852 178.782 C 52.423 179.445,52.072 180.080,52.072 180.194 C 52.072 180.308,51.929 180.456,51.753 180.523 C 51.578 180.590,51.435 180.751,51.435 180.880 C 51.435 181.380,50.117 183.020,49.769 182.953 C 49.447 182.891,49.406 181.983,49.309 172.792 L 49.203 162.699 45.045 162.642 C 42.758 162.610,40.821 162.650,40.741 162.730 M91.746 162.735 C 91.668 162.813,91.605 169.508,91.605 177.612 L 91.605 192.349 95.962 192.349 L 100.319 192.349 100.319 177.471 L 100.319 162.593 96.103 162.593 C 93.785 162.593,91.824 162.657,91.746 162.735 M117.003 162.833 C 114.494 163.429,113.496 163.718,113.496 163.849 C 113.496 163.930,113.185 164.108,112.805 164.245 C 110.471 165.089,107.389 168.983,106.712 171.945 C 106.579 172.524,106.491 176.736,106.488 182.625 L 106.482 192.349 110.831 192.349 L 115.180 192.349 115.241 183.156 L 115.303 173.964 115.887 172.990 C 117.599 170.133,117.577 170.138,128.905 170.138 C 140.163 170.138,139.965 170.100,141.851 172.650 L 142.508 173.539 142.614 182.891 L 142.721 192.242 147.062 192.300 C 150.394 192.344,151.444 192.295,151.575 192.087 C 151.811 191.716,151.800 174.579,151.563 174.120 C 151.459 173.917,151.273 173.089,151.151 172.279 C 150.507 168.015,146.778 164.207,142.153 163.092 C 140.364 162.661,118.670 162.438,117.003 162.833 M157.634 162.735 C 157.556 162.813,157.492 169.508,157.492 177.612 L 157.492 192.349 161.849 192.349 L 166.206 192.349 166.206 186.716 L 166.206 181.084 180.021 181.084 L 193.836 181.084 193.836 186.721 L 193.836 192.357 198.247 192.300 L 202.657 192.242 202.711 177.528 L 202.766 162.814 202.286 162.696 C 202.022 162.632,200.037 162.606,197.875 162.639 L 193.943 162.699 193.886 168.278 L 193.829 173.858 180.018 173.858 L 166.206 173.858 166.206 168.225 L 166.206 162.593 161.991 162.593 C 159.672 162.593,157.712 162.657,157.634 162.735 M218.298 163.037 C 213.972 163.996,210.903 166.687,209.233 170.988 C 208.317 173.347,208.235 182.604,209.120 183.729 C 209.217 183.852,209.418 184.329,209.566 184.789 C 210.129 186.536,212.476 189.433,213.921 190.164 C 214.272 190.342,214.702 190.608,214.878 190.756 C 215.053 190.905,215.914 191.300,216.791 191.634 L 218.385 192.242 231.137 192.242 L 243.889 192.242 245.480 191.644 C 248.315 190.579,249.417 189.719,251.931 186.610 C 252.073 186.435,252.521 185.478,252.928 184.485 L 253.666 182.678 253.665 177.471 L 253.665 172.264 252.956 170.510 C 252.566 169.546,252.182 168.757,252.102 168.757 C 252.022 168.757,251.770 168.411,251.543 167.989 C 250.533 166.114,247.224 163.779,244.804 163.235 C 244.184 163.095,243.331 162.894,242.908 162.787 C 241.306 162.383,220.290 162.596,218.298 163.037 M270.946 162.707 C 270.883 162.769,270.222 162.916,269.476 163.033 C 267.339 163.369,264.053 165.204,262.960 166.672 C 262.811 166.872,262.557 167.168,262.395 167.330 C 261.766 167.959,260.751 169.848,260.249 171.324 L 259.724 172.869 259.724 182.613 L 259.724 192.357 264.134 192.300 L 268.544 192.242 268.650 182.997 C 268.756 173.821,268.810 173.140,269.479 172.582 C 269.549 172.524,269.705 172.297,269.825 172.079 C 270.236 171.331,271.705 170.465,272.954 170.235 C 275.056 169.848,291.745 170.056,292.667 170.480 C 294.065 171.124,295.643 172.965,295.643 173.953 C 295.643 174.134,295.739 174.283,295.855 174.283 C 295.994 174.283,296.068 177.435,296.068 183.316 L 296.068 192.349 300.435 192.349 L 304.801 192.349 304.739 182.094 C 304.683 172.990,304.636 171.755,304.317 171.095 C 304.120 170.685,303.810 169.984,303.629 169.535 C 302.424 166.546,298.843 163.838,295.013 163.020 C 293.082 162.607,271.328 162.324,270.946 162.707 M321.966 162.695 C 321.910 162.752,321.153 162.935,320.284 163.104 C 315.888 163.956,312.403 167.292,311.137 171.860 C 310.069 175.713,310.609 184.381,311.989 185.547 C 312.058 185.606,312.299 186.015,312.523 186.456 C 313.031 187.455,315.429 189.890,316.271 190.262 C 316.615 190.415,316.897 190.600,316.897 190.674 C 316.897 190.749,317.160 190.914,317.481 191.042 C 318.655 191.509,319.346 191.778,319.554 191.848 C 321.802 192.612,345.371 192.518,347.396 191.738 C 349.512 190.922,351.158 189.873,352.391 188.556 C 355.312 185.434,355.792 183.928,355.792 177.885 L 355.792 173.858 339.851 173.858 L 323.911 173.858 323.911 177.471 L 323.911 181.084 335.388 181.084 C 341.700 181.084,346.865 181.134,346.865 181.194 C 346.865 181.890,345.321 183.545,343.795 184.485 L 342.933 185.016 333.475 185.016 C 322.701 185.016,322.948 185.054,321.065 183.116 C 319.858 181.874,319.660 181.073,319.660 177.425 C 319.660 173.588,319.818 173.066,321.467 171.446 C 322.850 170.087,322.076 170.149,339.107 170.032 C 354.345 169.928,354.621 169.918,354.551 169.511 C 354.322 168.200,351.456 165.163,349.667 164.336 C 349.236 164.137,348.836 163.917,348.778 163.846 C 348.614 163.648,347.346 163.279,345.590 162.920 C 344.053 162.605,322.264 162.398,321.966 162.695 M240.922 170.360 C 243.949 171.145,244.941 173.118,244.806 178.081 C 244.696 182.123,244.140 183.250,241.660 184.449 L 240.489 185.016 231.137 185.016 L 221.785 185.016 220.616 184.408 C 218.104 183.101,217.652 182.051,217.645 177.517 C 217.639 172.649,218.440 171.135,221.454 170.322 C 223.023 169.899,239.266 169.931,240.922 170.360 " stroke="none" fill="#3b3836" fill-rule="evenodd"></path><path id="path4" d="M198.670 18.720 C 198.491 19.003,198.275 19.474,198.191 19.766 C 198.106 20.058,197.824 20.776,197.564 21.360 C 197.304 21.945,196.960 22.877,196.799 23.433 C 196.638 23.988,196.439 24.442,196.357 24.442 C 196.275 24.442,196.092 24.801,195.951 25.239 C 195.809 25.677,195.419 26.630,195.084 27.356 C 194.748 28.081,194.474 28.780,194.474 28.908 C 194.474 29.035,194.293 29.494,194.072 29.926 C 193.431 31.182,192.561 33.081,192.561 33.226 C 192.561 33.299,192.233 34.061,191.831 34.918 C 191.430 35.776,191.037 36.734,190.958 37.048 C 190.879 37.363,190.729 37.620,190.625 37.620 C 190.521 37.620,190.436 37.720,190.436 37.842 C 190.436 37.964,190.118 38.753,189.729 39.595 C 189.341 40.437,188.895 41.461,188.738 41.870 C 188.581 42.279,188.325 42.765,188.169 42.950 C 188.013 43.134,187.885 43.421,187.884 43.587 C 187.884 43.754,187.698 44.193,187.472 44.565 C 187.246 44.936,186.847 45.749,186.587 46.371 C 186.327 46.993,185.998 47.646,185.857 47.821 C 185.715 47.997,185.473 48.499,185.318 48.937 C 185.163 49.376,184.980 49.734,184.911 49.734 C 184.842 49.734,184.606 50.260,184.388 50.903 C 184.169 51.546,183.928 52.072,183.852 52.072 C 183.775 52.072,183.487 52.622,183.212 53.294 C 182.936 53.967,182.647 54.564,182.570 54.623 C 182.493 54.681,181.960 55.684,181.385 56.850 C 180.810 58.017,180.221 59.100,180.074 59.256 C 179.928 59.413,179.809 59.637,179.809 59.753 C 179.809 60.088,172.843 72.638,172.216 73.433 C 171.837 73.913,170.032 77.158,170.032 77.360 C 170.032 77.479,169.934 77.577,169.815 77.577 C 169.695 77.577,169.482 77.840,169.340 78.162 C 169.199 78.483,168.770 79.188,168.388 79.728 C 168.006 80.268,167.694 80.774,167.694 80.853 C 167.694 80.931,167.595 81.111,167.473 81.252 C 167.352 81.394,166.825 82.179,166.301 82.997 C 164.968 85.082,165.027 84.994,164.083 86.328 C 163.614 86.991,163.231 87.637,163.231 87.763 C 163.231 87.889,163.137 87.991,163.024 87.991 C 162.910 87.991,162.680 88.255,162.512 88.576 C 162.345 88.897,161.960 89.447,161.657 89.798 C 161.354 90.149,161.106 90.494,161.105 90.566 C 161.105 90.638,160.820 91.021,160.471 91.416 C 160.122 91.812,159.835 92.252,159.833 92.394 C 159.831 92.536,159.639 92.755,159.405 92.880 C 159.171 93.005,158.980 93.203,158.980 93.319 C 158.980 93.435,158.594 94.029,158.122 94.640 C 157.651 95.250,157.101 95.969,156.900 96.237 C 156.700 96.506,156.296 96.996,156.004 97.327 C 155.712 97.658,155.186 98.291,154.835 98.735 C 151.213 103.319,144.564 110.065,140.608 113.172 C 140.017 113.637,139.485 114.072,139.426 114.139 C 139.368 114.206,138.985 114.491,138.576 114.772 C 138.167 115.052,137.784 115.336,137.726 115.401 C 137.667 115.466,136.902 115.991,136.026 116.568 C 135.149 117.144,134.384 117.670,134.325 117.735 C 134.267 117.800,133.836 118.044,133.369 118.276 C 132.901 118.509,132.471 118.756,132.412 118.826 C 132.300 118.959,129.359 120.390,127.736 121.100 C 127.210 121.330,126.254 121.681,125.611 121.880 C 124.968 122.078,124.251 122.332,124.017 122.444 C 122.305 123.263,112.009 124.165,112.009 123.496 C 112.009 123.373,111.718 123.273,111.362 123.273 C 110.453 123.273,107.564 122.671,106.801 122.322 C 106.451 122.162,105.877 121.961,105.526 121.876 C 105.175 121.791,104.199 121.401,103.357 121.009 C 102.515 120.618,101.726 120.298,101.604 120.298 C 101.482 120.298,101.382 120.221,101.382 120.127 C 101.382 120.033,100.905 119.722,100.322 119.436 C 99.739 119.150,99.261 118.847,99.259 118.762 C 99.258 118.677,98.982 118.466,98.647 118.293 C 97.621 117.763,93.342 113.729,92.349 112.356 C 92.115 112.033,91.772 111.600,91.587 111.393 C 91.242 111.008,90.670 110.069,89.466 107.917 L 88.782 106.695 48.217 106.695 C 18.790 106.695,7.651 106.759,7.651 106.929 C 7.651 107.195,10.107 110.112,10.550 110.372 C 10.709 110.465,10.840 110.634,10.840 110.746 C 10.840 111.001,16.893 117.054,18.585 118.491 C 19.274 119.075,20.227 119.912,20.704 120.351 C 21.180 120.789,21.638 121.148,21.721 121.148 C 21.804 121.148,22.102 121.363,22.383 121.626 C 22.664 121.889,23.122 122.276,23.402 122.485 C 24.909 123.614,27.557 125.630,27.777 125.816 C 27.916 125.933,28.386 126.229,28.822 126.474 C 29.258 126.719,29.918 127.151,30.290 127.434 C 30.661 127.717,31.075 127.949,31.210 127.949 C 31.345 127.949,31.456 128.030,31.456 128.128 C 31.456 128.227,31.910 128.536,32.465 128.816 C 33.021 129.096,33.547 129.438,33.636 129.577 C 33.725 129.716,34.131 129.940,34.539 130.075 C 34.948 130.210,35.282 130.396,35.282 130.490 C 35.282 130.583,35.784 130.875,36.397 131.138 C 37.011 131.400,37.561 131.676,37.620 131.750 C 37.678 131.824,38.107 132.075,38.573 132.308 C 39.039 132.541,39.535 132.839,39.677 132.970 C 39.818 133.101,40.370 133.337,40.902 133.494 C 41.435 133.652,41.870 133.843,41.870 133.921 C 41.870 133.998,42.468 134.282,43.199 134.551 C 43.929 134.821,44.575 135.106,44.633 135.184 C 44.744 135.332,46.255 135.927,48.778 136.818 C 49.596 137.106,50.361 137.419,50.478 137.511 C 50.595 137.604,51.312 137.849,52.072 138.055 C 52.832 138.261,53.551 138.504,53.670 138.594 C 53.789 138.684,54.793 138.970,55.902 139.229 C 57.010 139.488,58.016 139.776,58.136 139.869 C 58.257 139.962,59.261 140.202,60.368 140.403 C 61.475 140.603,62.428 140.834,62.487 140.915 C 62.595 141.064,66.499 141.771,70.106 142.295 C 77.497 143.367,101.649 143.155,104.251 141.995 C 104.485 141.891,106.015 141.643,107.651 141.443 C 109.288 141.244,110.675 141.011,110.733 140.926 C 110.792 140.842,111.892 140.603,113.177 140.396 C 114.463 140.189,115.611 139.944,115.728 139.851 C 115.845 139.759,116.923 139.485,118.123 139.241 C 119.324 138.998,120.472 138.714,120.674 138.610 C 120.876 138.507,121.759 138.251,122.635 138.041 C 123.512 137.832,124.277 137.597,124.336 137.519 C 124.394 137.440,125.064 137.206,125.824 136.999 C 126.583 136.791,127.492 136.496,127.843 136.342 C 128.193 136.189,129.006 135.898,129.649 135.697 C 130.292 135.496,130.916 135.255,131.036 135.161 C 131.156 135.067,131.730 134.835,132.311 134.646 C 132.893 134.456,133.656 134.170,134.006 134.009 C 134.868 133.615,137.921 132.197,139.745 131.343 C 140.563 130.961,141.265 130.566,141.304 130.467 C 141.343 130.368,141.471 130.287,141.590 130.287 C 141.801 130.287,144.534 128.808,146.027 127.885 C 146.443 127.628,147.256 127.134,147.834 126.787 C 148.412 126.440,148.996 126.049,149.132 125.917 C 149.268 125.785,149.674 125.555,150.035 125.406 C 150.396 125.257,150.691 125.052,150.691 124.952 C 150.691 124.852,151.073 124.574,151.541 124.336 C 152.009 124.097,152.391 123.808,152.391 123.694 C 152.391 123.579,152.497 123.486,152.626 123.486 C 152.756 123.486,153.353 123.106,153.955 122.642 C 154.556 122.178,155.239 121.659,155.473 121.488 C 155.707 121.318,157.189 120.074,158.767 118.726 L 161.637 116.274 199.044 116.268 L 236.451 116.261 237.759 117.482 C 239.052 118.689,239.788 119.323,240.954 120.233 C 241.282 120.490,242.266 121.279,243.140 121.987 C 244.013 122.694,244.845 123.273,244.989 123.273 C 245.132 123.273,245.326 123.393,245.420 123.539 C 245.639 123.881,248.159 125.611,248.438 125.611 C 248.555 125.611,248.727 125.742,248.820 125.902 C 248.914 126.062,249.373 126.400,249.841 126.652 C 250.308 126.905,251.494 127.587,252.475 128.168 C 253.457 128.749,254.334 129.224,254.424 129.224 C 254.514 129.224,254.619 129.302,254.658 129.396 C 254.749 129.617,260.806 132.625,261.159 132.625 C 261.305 132.625,261.424 132.702,261.424 132.795 C 261.424 132.889,261.926 133.144,262.540 133.363 C 263.154 133.581,263.847 133.876,264.081 134.018 C 264.315 134.161,265.032 134.444,265.675 134.648 C 266.318 134.852,266.940 135.095,267.059 135.187 C 267.323 135.394,269.970 136.339,271.838 136.893 C 272.598 137.119,273.507 137.436,273.858 137.598 C 274.208 137.761,274.830 137.958,275.239 138.038 C 275.648 138.117,276.509 138.357,277.152 138.572 C 277.795 138.786,279.182 139.129,280.234 139.335 C 281.286 139.541,282.194 139.777,282.253 139.860 C 282.311 139.943,283.363 140.172,284.591 140.369 C 285.818 140.565,287.014 140.818,287.248 140.931 C 287.648 141.124,291.014 141.643,296.068 142.290 C 304.287 143.342,322.973 143.279,328.799 142.180 C 329.442 142.058,331.211 141.753,332.731 141.502 C 334.251 141.250,335.542 140.988,335.600 140.918 C 335.659 140.849,336.639 140.612,337.779 140.391 C 338.919 140.171,339.851 139.930,339.851 139.855 C 339.851 139.780,340.855 139.496,342.083 139.224 C 343.310 138.951,344.315 138.665,344.315 138.588 C 344.315 138.511,345.032 138.270,345.909 138.052 C 346.785 137.833,347.503 137.587,347.503 137.505 C 347.503 137.423,347.957 137.234,348.512 137.086 C 349.067 136.937,349.952 136.610,350.478 136.358 C 351.004 136.107,351.865 135.766,352.391 135.600 C 352.917 135.435,353.395 135.242,353.454 135.172 C 353.512 135.102,353.895 134.914,354.304 134.754 C 355.522 134.277,358.228 133.006,358.342 132.858 C 358.401 132.782,358.855 132.540,359.352 132.321 C 359.849 132.102,360.255 131.865,360.256 131.796 C 360.256 131.726,360.711 131.488,361.265 131.267 C 361.820 131.046,362.370 130.758,362.487 130.625 C 362.604 130.493,363.106 130.205,363.603 129.985 C 364.099 129.765,364.506 129.510,364.506 129.419 C 364.506 129.328,364.721 129.186,364.984 129.104 C 365.247 129.022,365.845 128.695,366.312 128.377 C 367.096 127.845,367.563 127.535,368.884 126.674 C 370.801 125.423,372.845 123.893,373.071 123.539 C 373.165 123.393,373.339 123.273,373.458 123.273 C 373.636 123.273,374.970 122.256,376.108 121.254 C 376.240 121.137,376.710 120.755,377.151 120.404 C 379.229 118.751,386.004 112.132,388.102 109.703 C 388.742 108.961,389.482 108.155,389.745 107.911 C 391.167 106.595,394.478 106.695,349.642 106.695 L 309.062 106.695 308.915 107.157 C 308.834 107.411,308.678 107.722,308.568 107.848 C 308.458 107.974,308.086 108.555,307.742 109.139 C 306.753 110.822,306.650 110.974,305.498 112.444 C 304.397 113.850,302.026 116.249,300.850 117.147 C 300.499 117.415,300.027 117.803,299.801 118.009 C 299.574 118.216,299.318 118.385,299.231 118.385 C 299.145 118.385,298.948 118.506,298.793 118.654 C 298.639 118.801,298.058 119.160,297.503 119.450 C 296.947 119.740,296.493 120.037,296.493 120.109 C 296.493 120.181,296.039 120.411,295.484 120.621 C 294.928 120.831,294.426 121.065,294.368 121.142 C 293.973 121.661,288.173 123.262,286.663 123.269 C 286.225 123.271,285.866 123.369,285.866 123.486 C 285.866 123.757,279.417 123.774,278.903 123.505 C 278.700 123.398,277.529 123.149,276.302 122.951 C 275.074 122.752,273.974 122.514,273.858 122.420 C 273.741 122.326,272.904 122.035,271.998 121.772 C 271.092 121.510,270.351 121.224,270.351 121.138 C 270.351 121.052,270.088 120.915,269.766 120.835 C 269.156 120.683,265.647 119.012,265.462 118.786 C 265.404 118.715,265.021 118.486,264.612 118.277 C 264.203 118.068,263.572 117.672,263.211 117.397 C 262.849 117.122,262.486 116.897,262.405 116.897 C 262.323 116.897,262.141 116.799,262.000 116.678 C 261.858 116.558,260.848 115.803,259.755 115.001 C 254.743 111.323,249.845 106.643,244.608 100.531 C 242.966 98.615,239.769 94.551,238.255 92.455 C 237.790 91.812,237.280 91.142,237.121 90.967 C 236.962 90.792,236.653 90.361,236.434 90.011 C 236.215 89.660,235.914 89.297,235.765 89.203 C 235.616 89.110,235.494 88.947,235.494 88.841 C 235.494 88.736,235.040 88.014,234.485 87.237 C 233.929 86.461,233.379 85.667,233.262 85.474 C 233.146 85.280,232.739 84.679,232.359 84.137 C 231.979 83.596,231.668 83.060,231.668 82.948 C 231.668 82.836,231.477 82.571,231.243 82.359 C 231.010 82.148,230.818 81.879,230.818 81.762 C 230.818 81.645,230.593 81.253,230.318 80.891 C 230.044 80.530,229.651 79.908,229.446 79.510 C 229.241 79.112,228.987 78.681,228.882 78.553 C 228.368 77.926,227.256 76.118,227.008 75.505 C 226.854 75.125,226.659 74.814,226.574 74.814 C 226.489 74.814,226.247 74.431,226.036 73.964 C 225.825 73.496,225.572 73.114,225.473 73.114 C 225.373 73.114,225.292 72.992,225.292 72.843 C 225.292 72.694,224.981 72.095,224.601 71.511 C 224.222 70.927,223.738 70.117,223.526 69.709 C 223.314 69.302,222.815 68.395,222.416 67.694 C 222.017 66.993,221.539 66.132,221.353 65.781 C 221.167 65.430,220.691 64.570,220.295 63.868 C 219.898 63.167,219.366 62.139,219.113 61.583 C 218.859 61.028,218.580 60.574,218.494 60.574 C 218.407 60.574,218.165 60.120,217.955 59.564 C 217.745 59.009,217.515 58.507,217.442 58.448 C 217.221 58.269,212.965 49.620,212.965 49.350 C 212.965 49.211,212.882 49.097,212.781 49.097 C 212.680 49.097,212.428 48.642,212.221 48.087 C 212.014 47.532,211.714 46.927,211.554 46.742 C 211.395 46.557,211.265 46.337,211.265 46.251 C 211.265 46.166,210.882 45.294,210.414 44.315 C 209.947 43.335,209.564 42.432,209.564 42.308 C 209.564 42.184,209.478 42.083,209.372 42.083 C 209.266 42.083,209.010 41.548,208.805 40.894 C 208.599 40.240,208.309 39.583,208.161 39.435 C 208.013 39.287,207.731 38.674,207.534 38.074 C 207.338 37.473,207.109 36.982,207.025 36.982 C 206.942 36.982,206.649 36.312,206.376 35.494 C 206.103 34.676,205.809 34.006,205.722 34.006 C 205.636 34.006,205.400 33.480,205.198 32.837 C 204.996 32.194,204.765 31.668,204.686 31.668 C 204.606 31.668,204.370 31.118,204.161 30.446 C 203.952 29.774,203.612 28.937,203.404 28.587 C 203.197 28.236,202.907 27.566,202.761 27.099 C 202.615 26.631,202.411 26.143,202.309 26.013 C 202.207 25.883,201.933 25.224,201.700 24.548 C 201.468 23.872,201.194 23.213,201.092 23.084 C 200.990 22.954,200.736 22.322,200.529 21.679 C 200.321 21.036,200.022 20.321,199.863 20.091 C 199.705 19.860,199.575 19.520,199.575 19.334 C 199.575 18.533,199.024 18.159,198.670 18.720 " stroke="none" fill="#b80000" fill-rule="evenodd"></path></g></svg>
