<svg width="960" height="480" xmlns="http://www.w3.org/2000/svg">
 <style type="text/css">.st0{fill:#00469D;}</style>

 <g>
  <title>background</title>
  <rect fill="none" id="canvas_background" height="482" width="962" y="-1" x="-1"/>
 </g>
 <g>
  <title>Layer 1</title>
  <g stroke="null" id="svg_1">
   <path stroke="null" id="svg_2" d="m470.2926,142.51705l-1.63193,-1.75361l-3.2011,0l-1.63193,1.75361l0,1.75361l1.63193,0l1.63193,0l3.2011,0l0,-1.75361l1.63193,0l-1.63193,0zm419.65785,87.6132l-1.63193,-1.75361l-1.63193,0l-1.63193,-1.75361l0,1.75361l-1.63193,0l0,1.75361l-1.63193,1.75361l0,1.75361l0,3.50723l0,3.50723l1.63193,3.50723l0,1.75361l0,1.75361l0,10.52168l0,8.76806l1.63193,7.01445l1.63193,7.01445l0,7.01445l1.63193,0l1.63193,1.75361l3.2011,1.75361l1.63193,1.75361l3.2011,1.75361l1.63193,0l1.63193,-5.26084l1.63193,-3.50723l0,-3.50723l0,-1.75361l1.63193,-5.26084l0,-3.50723l0,-1.75361l0,-5.26084l0,-5.26084l0,-7.01445l1.63193,0l3.2011,0l1.63193,-1.75361l1.63193,0l3.2011,-1.75361l1.63193,0l1.63193,-1.75361l1.63193,-1.75361l0,1.75361l0,7.01445l-3.2011,3.50723l-3.2011,3.50723l-3.26387,5.26084l-1.63193,3.50723l0,1.75361l0,1.75361l0,3.50723l0,1.75361l0,1.75361l0,1.75361l8.0969,3.50723l1.63193,0l6.46497,0l4.83303,0l3.2011,0l8.0969,-1.75361l6.46497,-1.75361l1.63193,-1.75361l0,-3.50723l0,-1.75361l0,-1.75361l0,-1.75361l-1.63193,-1.75361l-1.63193,0l0,-1.75361l-1.63193,0l0,-3.50723l1.63193,-3.50723l0,-5.26084l0,-5.26084l1.63193,-3.50723l0,-1.75361l0,-1.75361l0,-3.50723l0,-1.75361l-3.2011,-3.50723l-1.63193,-3.50723l-3.2011,-3.50723l-3.2011,-1.75361l-1.63193,0l-4.83303,0l-3.2011,0l-1.63193,0l-4.83303,3.50723l-1.63193,0l-1.63193,1.75361l-3.2011,1.75361l-3.26387,1.75361l-1.63193,0l-1.63193,1.75361l-4.83303,3.50723l-1.63193,0l-1.63193,0l-1.63193,-1.75361l-3.2011,-3.50723l-1.63193,-3.50723l-3.32663,-1.75361zm20.96406,-63.06262l0,1.75361l-6.46497,1.75361l-1.63193,0l-1.63193,1.75361l0,1.75361l1.63193,1.75361l0,1.75361l1.63193,1.75361l1.63193,1.75361l1.63193,0l1.63193,1.75361l1.63193,0l1.63193,1.75361l3.2011,1.75361l1.63193,0l3.2011,1.75361l4.83303,1.75361l1.63193,0l1.63193,0l1.63193,0l1.63193,0l1.63193,0l1.63193,-1.75361l1.63193,0l1.63193,-1.75361l0,-1.75361l0,-1.75361l1.63193,-1.75361l0,-1.75361l-1.63193,-1.75361l0,-1.75361l-3.26387,-3.50723l-1.63193,0l-1.63193,-1.75361l-3.2011,-1.75361l-17.8885,-1.75361zm21.02683,-36.75843l0,0l-4.83303,-3.50723l-1.63193,-1.75361l-3.2011,0l-6.46497,-1.75361c-11.298,-3.50723 -14.4991,3.50723 -22.596,14.0289l0,1.75361l1.63193,0l1.63193,0l1.63193,-1.75361l1.63193,0l0,1.75361l3.26387,0l1.63193,0l1.63193,0l1.63193,1.75361l1.63193,0l1.63193,1.75361l1.63193,1.75361l1.63193,1.75361l-1.63193,1.75361l-8.0969,1.75361l-6.46497,1.75361l-6.46497,1.75361l-8.0969,1.75361l-6.65327,0l-3.2011,1.75361l-3.2011,0l-1.63193,1.75361l-1.63193,0l0,1.75361l0,3.50723l1.63193,1.75361l0,1.75361l1.63193,0l3.2011,0l1.63193,0l6.46497,-1.75361l6.46497,-1.75361l6.46497,-1.75361l6.46497,-1.75361l24.22793,0l9.66606,0l3.26387,-1.75361l4.83303,0l8.03413,-1.75361l0,-3.50723l1.63193,-1.75361l0,-1.75361l1.63193,-3.50723l0,-1.75361l-1.63193,0l-11.298,0l-1.63193,0l-1.63193,0l-1.63193,0l-1.63193,0l-1.63193,0l0,-1.75361l0,-1.75361l0,-1.75361l0,-1.75361l0,-1.75361l0,-1.75361l0,-1.75361l-1.56917,-1.75361zm-85.55095,22.72952l0,0l-1.63193,1.75361l0,3.50723l-1.63193,5.26084l0,3.50723l-3.2011,5.26084l-1.63193,3.50723l-1.63193,5.26084l-1.63193,5.26084l-4.83303,8.76806l-3.2011,3.50723l-1.63193,3.50723l0,1.75361l-1.63193,1.75361l0,1.75361l0,1.75361l-1.63193,3.50723l0,1.75361l0,3.50723l1.63193,1.75361l0,1.75361l1.63193,0l0,1.75361l0,1.75361l0,1.75361l0,1.75361l0,1.75361l0,1.75361l1.63193,1.75361l1.63193,0l0,-1.75361l1.63193,-3.50723l1.63193,-1.75361l4.83303,-5.26084l4.83303,-5.26084l4.83303,-3.50723l1.63193,1.75361l1.63193,3.50723l0,1.75361l1.63193,3.50723l0,1.75361l0,8.76806l0,1.75361l-1.63193,7.01445l0,1.75361l0,1.75361l0,1.75361l-1.63193,3.50723l0,3.50723l0,1.75361l-1.63193,1.75361l0,1.75361l0,7.01445l0,5.26084l-1.63193,0l0,10.52168l0,1.75361l1.63193,3.50723l1.63193,1.75361l1.63193,0l1.63193,-1.75361l0,-1.75361l1.63193,-1.75361l1.63193,-1.75361l1.63193,0l1.63193,-1.75361l1.63193,-1.75361l1.63193,-3.50723l1.63193,-1.75361l0,-1.75361l0,-1.75361l0,-1.75361l1.63193,-1.75361l0,-3.50723l0,-3.50723l0,-3.50723l0,-3.50723l0,-3.50723l0,-3.50723l0,-1.75361l0,-1.75361l0,-1.75361l0,-3.50723l1.63193,-3.50723l0,-1.75361l0,-1.82106l0,-3.50723l0,-1.75361l0,-5.26084l1.63193,-1.75361l0,-1.75361l-1.63193,-1.75361l0,-1.75361l0,-5.26084l1.63193,0l0,-1.75361l0,-1.75361l1.63193,-1.75361l0,-1.75361l-1.63193,-1.75361l0,-1.75361l-1.63193,-1.75361l-1.63193,-1.75361l-3.2011,0l-1.63193,-1.75361l-1.63193,0l-1.63193,0l0,-1.75361l-1.63193,0l1.63193,-1.75361l0,-3.50723l0,-1.75361l1.63193,-3.50723l0,-5.26084l-3.2011,-5.26084l-1.63193,-5.26084l-3.2011,-5.26084l-3.45217,-5.19339zm-88.81482,45.52649l0,0l0,1.75361l0,1.75361l0,3.50723l0,1.75361l-1.63193,3.50723l-1.63193,0l0,1.75361l-1.63193,1.75361l-4.83303,1.75361l-3.2011,1.75361l-1.63193,0l-1.63193,0l-1.63193,1.75361l-1.63193,0l0,-1.75361l-1.63193,-3.50723l0,-1.75361l0,-3.50723l0,-1.75361l4.83303,-3.50723l4.83303,-1.75361l4.83303,-1.75361l3.2011,-1.75361l3.3894,0l0,0zm6.46497,-26.23675l0,1.75361l-1.63193,1.75361l-1.63193,1.75361l-1.63193,1.75361l-1.63193,1.75361l-3.2011,0l-1.63193,1.75361l-1.63193,1.75361l-3.2011,0l0,1.75361l-3.2011,0l-1.63193,0l-3.2011,0l-1.63193,0l-1.63193,-1.75361l0,-1.75361l-1.63193,0l0,-1.75361l0,-1.75361l3.26387,-3.50723l0,-1.75361l12.92993,-5.26084l4.83303,0l3.2011,0l1.63193,1.75361l1.63193,0l0,1.75361l1.63193,0l0,0zm-69.41992,64.81623l-1.63193,-1.75361l0,-1.75361l0,-1.75361l1.63193,-3.50723l0,-3.50723l1.63193,-3.50723l3.26387,-1.75361l1.63193,-1.75361l3.2011,0l1.63193,0l1.63193,1.75361l0,1.75361l0,1.75361l0,3.50723l0,1.75361l-1.63193,3.50723l0,1.75361l-3.26387,1.75361l-3.2011,1.75361l-3.26387,0l-1.63193,0l0,0zm32.32483,-99.88849l-1.63193,0l0,1.75361l0,1.75361l-1.63193,3.50723l0,1.75361l-1.63193,3.50723l-1.63193,7.01445l0,1.75361l0,3.50723l-1.63193,1.75361l0,3.50723l-1.63193,3.50723l0,1.75361l-4.83303,1.75361l-3.2011,3.50723l-4.83303,1.75361l-3.2011,3.50723l3.2011,1.75361l3.2011,1.75361l1.63193,0l4.83303,-1.75361l-1.63193,3.50723l0,1.75361l0,1.75361l-1.63193,3.50723l-1.63193,1.75361l0,1.75361l-1.63193,1.75361l-3.2011,3.50723l-1.63193,1.75361l-1.63193,0l-1.63193,1.75361l0,-8.76806l0,-8.76806l-4.83303,-7.01445l-3.2011,-7.01445l-1.63193,0l0,5.26084l-1.63193,3.50723l-1.63193,0l0,1.75361l-1.63193,1.75361l0,1.75361l-1.63193,1.75361l-1.63193,3.50723l0,3.50723l1.63193,3.50723l0,5.26084l0,5.26084l0,3.50723l-1.63193,3.50723l0,3.50723l-1.63193,1.75361l0,1.75361l0,1.75361l0,1.75361l-1.63193,1.75361l0,1.75361l0,1.75361l0,3.50723l1.63193,1.75361l0,1.75361l1.63193,0l1.63193,1.75361l1.63193,1.75361l1.63193,0l1.63193,0l1.63193,3.50723l1.63193,1.75361l1.63193,1.75361l3.2011,0l1.63193,1.75361l4.83303,1.75361l1.63193,0l1.63193,7.01445l0,3.50723l1.63193,3.50723l3.2011,5.26084l1.63193,3.50723l3.26387,1.75361l1.63193,3.50723l3.2011,1.75361l1.63193,0l4.83303,1.75361l8.0969,1.75361l8.0969,1.75361l3.2011,0l1.63193,0l1.63193,0l1.63193,0l4.83303,-1.75361l6.46497,-1.75361l4.83303,-1.75361l6.46497,-1.75361l4.83303,-1.75361c4.83303,-1.75361 9.66606,-3.50723 16.13103,-5.26084c0,-1.75361 4.83303,-7.01445 6.46497,-8.76806l-1.63193,-1.75361l0,-1.75361l-1.63193,-3.50723l-1.63193,-1.75361l-1.63193,-1.75361l-3.2011,-1.75361l-8.0969,3.50723l-6.46497,1.75361l-4.83303,1.75361l-3.26387,1.75361l-3.2011,0l-4.83303,1.75361l-6.46497,1.75361l-4.83303,0l-6.46497,0l-4.83303,-1.75361l-1.63193,-3.50723l-1.63193,-1.75361l-1.63193,-7.01445l1.63193,0l0,-1.75361l1.63193,-1.75361l4.83303,-3.50723l30.69289,-7.01445l1.63193,0l1.63193,-3.50723l1.63193,-1.75361l1.63193,-3.50723l1.63193,-1.75361l0,-10.52168l-3.2011,-7.01445l1.63193,-5.26084l1.63193,-3.50723l1.63193,-5.26084l0,-5.26084l1.63193,-5.26084l0,-5.26084l1.63193,-3.50723l0,-5.26084l0,-1.75361l-8.0969,-14.0289l-3.2011,-3.50723l-4.83303,-1.75361l-9.66606,0l-8.0969,5.26084l-8.03413,5.26084l-1.63193,0l-1.63193,0l0,-1.75361l-1.63193,-1.75361l1.63193,0l0,-1.75361l0,-3.50723l0,-1.75361l0,-1.75361l0,-3.50723l0,-3.50723l-1.63193,-1.75361l0,-1.75361l-3.26387,-1.75361l-1.63193,-1.75361l-1.63193,0l-3.2011,0l-1.6947,0l0,0zm-190.4968,36.82587l0,-1.75361l0,-1.75361l0,-1.75361l0,-1.75361l-6.46497,-14.0289l-1.63193,3.50723l-1.63193,3.50723l0,1.75361l-1.63193,5.26084l0,7.01445l0,14.0289l-1.63193,15.78252l0,7.01445l-1.63193,8.76806l-1.63193,15.78252l0,28.05781l0,3.50723l0,1.75361l1.63193,1.75361l1.63193,1.75361l1.63193,1.75361l1.63193,0l1.63193,-3.50723l1.63193,-1.75361l0,-3.50723l0,-1.75361l0,-3.50723l0,-1.75361l1.63193,-1.75361l-1.63193,-1.75361l0,-1.75361l0,-3.50723l0,-10.58912l0,-8.76806l1.63193,-8.76806l1.63193,-8.76806l1.63193,-5.26084l0,-3.50723l1.63193,-8.76806l0,-5.26084l0,-3.50723l1.63193,-1.75361l-1.63193,-8.76806l-0.06277,-1.68617l0,0zm-127.47908,5.26084l1.63193,-1.75361l1.63193,5.26084l1.63193,3.50723l0,5.26084l0,5.26084l0,3.50723l-1.63193,1.75361l-1.63193,1.75361l-1.63193,1.75361l-1.63193,1.75361l-3.2011,1.75361l-1.63193,0l-1.63193,1.75361l-4.83303,0l-3.2011,1.75361l-6.46497,1.75361l-4.83303,1.75361l-4.83303,5.26084l-1.63193,0l0,-1.75361l1.63193,-5.26084l1.63193,-5.26084l3.2011,-5.26084l3.2011,-3.50723l3.26387,-5.26084l3.2011,-1.75361l3.2011,-3.50723l4.83303,-3.50723l1.63193,0l0,-1.75361l1.63193,0l1.63193,-1.75361l1.63193,-1.75361l3.2011,-1.75361zm70.98909,-31.56503l0,0l0,1.75361l0,1.75361l0,1.75361l0,1.75361l0,1.75361l-1.63193,1.75361l-1.63193,1.75361l0,1.75361l-1.63193,0l0,1.75361l0,1.75361l0,1.75361l-3.2011,3.50723l-3.2011,5.26084l-1.63193,1.75361l-1.63193,1.75361l-1.63193,1.75361l-1.63193,1.75361l-9.66606,0l0,-15.78252l0,-3.50723l0,-1.75361l1.63193,-1.75361l1.63193,-1.75361l1.63193,-1.75361l3.26387,0l1.63193,-1.75361l3.2011,0l1.63193,-1.75361l3.2011,0l0,-1.75361l1.63193,0l1.63193,-1.75361l1.63193,0l1.63193,-1.75361l1.63193,0l1.5064,0l0,0zm4.83303,8.76806l0,-3.50723l0,-1.75361l0,-1.75361l-1.63193,0l0,-1.75361l-1.63193,-1.75361l-1.63193,-1.75361l-1.63193,0l-3.2011,0l1.63193,0l-1.63193,0l0,1.75361l-1.63193,0l-1.63193,-1.75361l-1.5064,0l-1.63193,0l-1.63193,0l-3.2011,1.75361l-1.63193,0l-1.63193,0l1.63193,-1.75361l0,-1.75361l-1.63193,0l-1.63193,-1.75361l-1.63193,0l-1.63193,0l-4.83303,0l0,1.75361l0,1.75361l0,1.75361l-3.2011,-1.75361l-4.83303,0l-3.26387,-3.50723l-1.63193,-1.75361l-1.63193,-1.75361l0,-3.50723l-1.63193,-5.26084l-3.2011,-3.50723l-1.63193,-3.50723l-3.2011,-1.75361l-3.2011,-3.50723l-3.2011,-1.75361l-4.83303,-1.75361l-3.2011,0l0,3.50723l1.63193,5.26084l0,5.26084l0,5.26084l0,8.76806l0,1.75361l0,1.75361l0,3.50723l0,5.26084l0,1.75361l-3.2011,1.75361l0,5.26084l-1.63193,0l-6.46497,1.75361l-8.0969,3.50723l-6.46497,3.50723l-6.46497,5.26084l-1.63193,-7.01445l0,-1.75361l0,-3.50723l-1.63193,-3.50723l-1.63193,-1.75361l0,-1.75361l-1.63193,0c-6.46497,15.78252 -12.92993,31.49759 -17.76296,43.77288l0,7.01445l-1.63193,0l0,8.76806l1.63193,0l0,1.75361l0,3.50723l1.63193,3.50723l1.63193,1.75361l1.63193,1.75361l3.2011,0l1.63193,1.75361l3.2011,0l1.63193,0l1.63193,0l0,1.75361l1.63193,0l0,1.75361l0,1.75361l1.63193,3.50723l1.63193,1.75361l1.63193,0l3.2011,1.75361l3.2011,0l12.92993,-5.26084l12.92993,-3.50723l1.63193,7.01445l0,7.01445l0,7.01445l1.63193,8.76806l0,1.75361l0,5.26084l0,7.01445l1.63193,1.75361l0,1.75361l0,1.75361l-1.63193,0l1.63193,7.01445l1.63193,8.76806l0,1.75361l0,1.75361l0,-1.75361l1.63193,0l0,-1.75361l0,-1.75361l0,1.75361l0,-1.75361l0,-1.75361l0,-3.50723l0,-1.75361l0,-1.75361l1.63193,1.75361l1.63193,1.75361l0,1.75361l1.63193,3.50723l0,1.75361l1.63193,1.75361l-1.75747,3.37233l0,1.75361l0,3.50723l1.63193,3.50723l1.63193,0l1.63193,1.75361l1.63193,-1.75361l0,-1.75361l1.63193,-1.75361l0,-1.75361l0,-1.75361l0,-1.75361l1.63193,0l0,-3.50723l1.63193,-1.75361l0,-1.75361l1.63193,-1.75361l0,-1.75361l0,-1.75361l0,-3.50723l0,-1.75361l0,-1.75361l0,-1.75361l0,-1.75361l0,-1.75361l0,-1.75361l1.63193,-1.75361l0,-1.75361l1.63193,-3.50723l1.63193,-5.26084l1.63193,-3.50723l0,-1.75361l0,-1.75361l0,-1.75361l0,-3.50723l0,-8.76806l3.2011,-7.01445l3.2011,-5.26084l1.63193,-3.50723l0,-1.75361l1.63193,-1.75361l1.63193,-5.26084l1.63193,-1.75361l3.26387,-1.75361l3.2011,0l3.2011,-1.75361l3.2011,0l0,-1.61872l1.63193,0l0,-1.75361l0,-1.75361l1.63193,0l0,-1.75361l1.63193,-3.50723l1.63193,-3.50723l0,-1.75361l0,-1.75361l1.63193,-5.26084l0,-3.50723l0,-3.50723l0,-1.75361l3.2011,-5.26084l0,-1.75361l0,-1.75361l0,-1.75361l0,-1.75361l0,-3.50723l1.63193,-5.26084l0,-3.50723l0,-1.75361l1.3181,0.06745l0,0zm59.75386,-7.01445l0,1.75361l4.83303,-1.75361l4.83303,0l1.63193,0l1.63193,0l3.2011,0l1.63193,-1.75361l1.63193,0l1.63193,0l4.83303,-1.75361l3.2011,-1.75361l3.2011,-1.75361l4.83303,-1.75361l4.83303,-3.50723l8.0969,-1.75361l9.66606,0l1.63193,0l1.63193,0l3.2011,0l1.63193,0l1.63193,0l1.63193,1.75361l1.63193,3.50723l1.63193,1.75361l1.63193,3.50723l0,3.50723l0,5.26084l0,3.50723l-1.63193,5.26084l0,1.75361l0,10.52168l0,3.50723l-1.63193,1.75361l0,3.50723l0,1.75361l0,1.75361l0,6.94701l0,3.50723l0,3.50723l0,1.75361l-1.63193,1.75361l-1.63193,-1.75361l-1.63193,-1.75361l-1.63193,-1.75361l-3.2011,-1.75361l-1.63193,0l-1.63193,0l-1.63193,0l0,1.75361l0,3.50723l-1.63193,1.75361l0,3.50723l-1.63193,1.75361l0,1.75361l-1.63193,1.75361l-1.63193,1.75361l4.83303,0l4.83303,-1.75361l4.83303,0l4.83303,-1.75361l0,8.76806l1.63193,8.76806l0,8.76806l1.63193,8.76806l-3.2011,7.01445l0,1.75361l0,1.75361l0,1.75361l0,1.75361l0,3.50723l0,3.50723l-1.63193,-1.75361l-1.63193,-1.75361l-1.63193,-1.75361l-3.2011,-1.75361l-3.26387,0l3.26387,8.76806l3.2011,10.52168l3.2011,8.76806l4.83303,10.52168l3.2011,1.75361l3.2011,1.75361l3.2011,1.75361l3.2011,1.75361l3.2011,-1.75361l1.63193,-1.75361l0,-1.75361l1.63193,-3.50723l1.63193,-3.50723l0,-1.75361l0,-3.50723l0,-3.50723l0,-1.75361l0,-5.26084l0,-3.50723l0,-1.75361l0,-5.26084l-1.63193,-1.75361l0,-3.50723l1.63193,-3.50723l0,-3.50723l0,-3.50723l0,-5.26084l0,-3.50723l0,-1.75361l0,-1.75361l0,-1.75361l0,-19.28974l0,-1.75361l0,-1.75361l0,-1.75361l-1.63193,-1.75361l0,-17.53613l0,-1.75361l0,-1.75361l0,-1.75361l0,-5.26084l0,-3.50723l0,-5.26084l-1.63193,-3.50723l0,-7.01445l1.63193,-1.75361l0,-1.75361l0,-1.75361l0,-1.75361l0,-1.75361l0,-1.75361l-1.63193,-1.75361l0,-7.01445l0,-1.75361l1.63193,-1.75361l0,-1.75361l0,-3.50723l0,-1.75361l0,-1.75361l-3.2011,-3.50723l-3.2011,-3.50723l-4.83303,-7.01445l-9.47776,0l-3.2011,0l-3.2011,1.75361l-3.2011,0l-3.26387,0l-4.83303,3.50723l-1.63193,0l-6.46497,0l-6.46497,1.75361l-4.83303,0l-4.83303,1.75361l-6.46497,1.75361l-3.2011,3.50723l-4.83303,1.75361l-4.83303,3.50723l-9.66606,3.50723l-9.66606,1.75361l7.97137,5.32829zm-122.64604,155.86922l0,-1.75361l-1.63193,0l0,1.75361l0,1.75361l0,1.75361l1.63193,1.75361l0,-1.75361l1.63193,0l0,1.75361l0,1.75361l0,-1.75361l0,-1.75361l0,-1.75361l1.63193,0l0,-1.75361l-3.26387,0zm12.86716,-1.75361l0,1.75361l0,1.75361l1.63193,0l0,1.75361l0,-1.75361l0,-1.75361l-1.63193,0l0,-1.75361zm172.73383,-52.54094l0,0l-48.39309,17.53613l-4.83303,0l-4.8958,0l-3.2011,0l-3.2011,0l-3.2011,0l-1.63193,1.75361l1.63193,3.50723l1.63193,3.50723l1.63193,3.50723l1.63193,3.50723l4.83303,-1.75361l4.83303,0l4.83303,-1.75361l1.63193,-1.75361l3.26387,0l3.2011,-1.75361l1.63193,-1.75361l3.2011,0l1.63193,-1.75361l1.63193,0l3.2011,-1.75361l8.0969,-5.26084l6.46497,-5.26084l14.37356,-10.52168zm303.41401,-56.04817l-1.63193,0l-3.2011,0l-4.83303,0l-3.2011,1.75361l-3.2011,0l0,3.50723l1.63193,1.75361l0,1.75361l1.63193,1.75361l1.63193,1.75361l1.63193,1.75361l3.2011,3.50723l4.83303,0l3.2011,1.75361l4.83303,0l3.2011,1.75361l0,1.75361l3.26387,-1.75361l3.26387,0l3.2011,-1.75361l1.63193,0l1.63193,0l6.46497,-14.0289l0,-1.75361l-1.63193,-1.75361l-3.26387,0l-3.2011,-1.75361l-4.83303,0l-4.83303,0l-11.42353,0l0,0zm-311.51091,-38.51204l-3.2011,-3.50723l0,-3.50723l-1.63193,-1.75361l-1.63193,0l-8.0969,1.75361l-6.46497,3.50723l-8.0969,1.75361l-6.46497,3.50723l-6.46497,1.75361l-6.46497,3.50723l-6.46497,3.50723l-6.46497,3.50723l3.2011,5.26084l1.63193,1.75361l1.63193,3.50723l1.63193,0l0,1.75361l1.63193,1.75361l1.63193,0l3.2011,0l3.2011,0l3.2011,0l1.63193,0l0,3.50723l0,1.75361l0,1.75361l0,1.75361l0,3.50723l-3.2011,1.75361l-4.83303,1.75361l-3.13833,0l-1.63193,1.75361l-3.26387,1.75361l-1.63193,1.75361l-1.63193,1.75361l-1.63193,3.50723l0,1.75361l0,3.50723l4.83303,3.50723l3.26387,3.50723l1.63193,0l1.63193,0l0,1.75361l1.63193,0l0,1.75361l0,1.75361l0,1.75361l-1.63193,0l0,1.75361l-3.2011,1.75361l-1.63193,1.75361l-1.63193,3.50723l0,3.50723l-1.63193,1.75361l0,3.50723l1.63193,3.50723l0,3.50723l1.63193,1.75361l1.63193,0l1.63193,0l1.63193,0l1.63193,0l1.63193,0l3.2011,-1.75361l6.46497,-1.75361l3.2011,-1.75361l1.63193,0l1.63193,-1.75361l3.2011,-1.75361l1.63193,0l1.63193,0l6.46497,-3.50723l4.83303,-3.50723l4.83303,-3.50723l6.46497,-3.50723l0,-1.75361l0,-1.82106l0,-1.75361l-1.63193,-1.75361l-1.63193,-1.75361l-1.63193,-1.75361l-3.26387,0l-4.83303,0l1.63193,-3.50723l0,-1.75361l0,-1.75361l0,-1.75361l1.63193,-1.75361l1.63193,-1.75361l1.63193,0l1.63193,-3.50723l1.63193,-1.75361l0,-1.75361l1.63193,-1.75361l0,-1.75361l1.63193,-1.75361l0,-3.50723l-6.46497,-5.26084l-4.83303,-5.26084l0,-1.75361l1.63193,-5.26084l3.2011,-3.50723l3.26387,-3.50723l3.2011,-3.50723l0,-1.75361l0,-5.26084l1.63193,-3.50723l-1.75747,0.06745l0,0z" class="st0"/>
   <path stroke="null" id="svg_3" d="m97.45867,112.77308c1.63193,3.50723 3.2011,8.76806 3.2011,12.27529c-30.69289,15.78252 -51.65696,33.2512 -53.28889,56.04817c1.63193,19.28974 19.3949,26.30419 43.56006,29.74397c6.46497,-52.54094 20.96406,-106.8355 56.48999,-115.60356c25.7971,-5.26084 43.56006,19.28974 54.85806,43.77288c-4.83303,1.75361 -8.0969,3.50723 -12.92993,5.26084c-4.83303,-5.26084 -9.66606,-8.76806 -16.13103,-5.26084c-17.76296,14.0289 -24.22793,38.51204 -27.42903,64.81623c42.05366,-5.26084 98.54365,-36.75843 98.54365,-66.56985c0,-19.28974 -12.92993,-24.55058 -29.06096,-28.05781c-1.63193,-5.26084 -1.63193,-12.27529 -3.2011,-17.53613c48.39309,-1.75361 90.38398,26.23675 85.55095,59.55539c-12.92993,68.32346 -98.48088,96.31382 -151.707,108.58911c0,52.54094 8.0969,84.10598 25.7971,89.29937c8.0969,0 16.13103,-14.0289 24.22793,-59.55539c8.0969,-1.75361 14.56186,-5.26084 22.596,-7.01445c-8.0969,71.83069 -35.52593,113.84995 -61.32302,115.60356c-24.22793,1.75361 -45.19199,-24.55058 -58.12192,-64.81623c-4.83303,-19.28974 -9.66606,-42.01926 -9.66606,-68.32346c-45.19199,-5.26084 -83.91902,-17.53613 -85.55095,-54.29456c-1.63193,-38.37715 41.92813,-78.71024 93.58508,-97.93254" class="st0"/>
   <path stroke="null" id="svg_4" d="m894.78349,333.45853l0,40.26565l11.298,0l0,-31.49759l1.63193,0l9.66606,31.49759l9.66606,0l8.03413,-31.49759l1.63193,0l0,31.49759l11.298,0l0,-40.26565l-17.76296,0l-8.03413,24.55058l-1.63193,0l-6.46497,-24.55058l-19.33213,0zm-41.92813,19.28974l0,-5.26084c1.63193,-1.75361 1.63193,-3.50723 3.2011,-3.50723c0,-1.75361 1.63193,-1.75361 3.2011,-1.75361c1.63193,-1.75361 3.26387,-1.75361 4.83303,-1.75361c1.63193,0 3.2011,0 3.2011,1.75361c1.63193,0 3.2011,0 4.83303,1.75361c0,0 1.63193,1.75361 1.63193,3.50723l0,5.26084l0,5.26084c0,1.75361 -1.63193,3.50723 -1.63193,5.26084c-1.63193,0 -3.26387,1.75361 -3.26387,1.75361l-4.83303,0l-4.83303,0c-1.63193,0 -3.2011,-1.75361 -3.2011,-1.75361c-1.63193,-1.75361 -1.63193,-3.50723 -3.2011,-3.50723l0.06277,-7.01445l0,0zm-12.92993,0l0,7.01445c1.63193,1.75361 1.63193,3.50723 3.2011,5.26084c0,1.75361 1.63193,3.50723 3.2011,3.50723c1.63193,1.75361 3.2011,1.75361 4.83303,3.50723c3.2011,1.75361 8.0969,1.75361 12.92993,1.75361l6.46497,0c3.2011,-1.75361 4.83303,-1.75361 6.46497,-1.75361c1.63193,-1.75361 3.26387,-3.50723 4.83303,-3.50723c1.63193,-1.75361 1.63193,-3.50723 3.2011,-3.50723c0,-1.75361 1.63193,-3.50723 1.63193,-5.26084s1.63193,-5.26084 1.63193,-7.01445c0,-3.50723 -1.63193,-5.26084 -1.63193,-8.76806c-1.63193,-1.75361 -3.2011,-3.50723 -4.83303,-5.26084c-4.83303,-3.50723 -11.298,-5.26084 -17.76296,-5.26084l-11.298,0c-1.63193,1.75361 -4.83303,3.50723 -6.46497,5.26084c-3.2011,1.75361 -4.83303,3.50723 -4.83303,5.26084c-1.56917,3.50723 -1.56917,5.26084 -1.56917,8.76806m-17.76296,5.19339l0,3.50723c-1.63193,0 -1.63193,1.75361 -3.26387,1.75361c0,1.75361 -1.63193,1.75361 -1.63193,1.75361l-4.83303,0l-4.83303,0c0,0 -1.63193,-1.75361 -3.2011,-1.75361c0,-1.75361 -1.63193,-1.75361 -1.63193,-3.50723l0,-7.01445l0,-5.19339c0,0 1.63193,-1.75361 1.63193,-3.50723c1.63193,0 3.2011,-1.75361 3.2011,-1.75361c1.63193,-1.75361 3.26387,-1.75361 4.83303,-1.75361l3.26387,0c0,0 1.63193,0 1.63193,1.75361l1.63193,0c1.63193,0 1.63193,1.75361 1.63193,1.75361s1.63193,0 1.63193,1.75361l11.298,-1.75361c0,-1.75361 -1.63193,-3.50723 -3.2011,-3.50723c0,-1.75361 -1.63193,-3.50723 -3.2011,-5.26084c-1.63193,0 -3.2011,-1.75361 -6.46497,-1.75361l-8.0969,0l-9.66606,0c-3.2011,1.75361 -4.83303,3.50723 -8.0969,5.26084c-1.63193,1.75361 -3.26387,3.50723 -3.26387,5.26084c-1.63193,3.50723 -1.63193,5.26084 -1.63193,8.76806l0,7.01445c1.63193,1.75361 1.63193,3.50723 3.2011,5.26084c1.63193,1.75361 1.63193,3.50723 3.2011,3.50723c1.63193,1.75361 3.26387,3.50723 4.83303,3.50723c1.63193,0 3.2011,1.75361 4.83303,1.75361l8.0969,0l4.83303,0c1.63193,0 3.26387,-1.75361 4.83303,-1.75361c1.63193,0 3.2011,-1.75361 3.2011,-1.75361c1.63193,0 3.2011,-1.75361 3.2011,-1.75361c1.63193,-1.75361 1.63193,-3.50723 3.2011,-3.50723l0,-3.50723l-11.17246,-3.57467zm-77.45405,-24.48314l0,40.26565l38.72703,0l0,-8.76806l-25.7971,0l0,-8.76806l22.596,0l0,-7.01445l-22.596,0l0,-8.76806l24.22793,0l0,-7.01445l-37.15786,0l0,0.06745zm-43.62283,0l0,40.26565l37.15786,0l0,-8.76806l-24.22793,0l0,-31.49759l-12.92993,0zm-46.76116,0l0,40.26565l38.72703,0l0,-8.76806l-25.85986,0l0,-8.76806l24.22793,0l0,-7.01445l-24.22793,0l0,-8.76806l25.85986,0l0,-7.01445l-38.72703,0l0,0.06745zm-50.08779,0l0,8.76806l16.13103,0l0,31.49759l12.92993,0l0,-31.49759l14.4991,0l0,-8.76806l-43.56006,0zm-38.72703,24.48314l1.63193,1.75361l-12.92993,0l0,-1.75361l4.83303,-15.78252l1.63193,0l4.83303,15.78252zm3.26387,8.76806l0,0l3.2011,7.01445l12.92993,0l-17.76296,-40.26565l-14.4991,0l-17.76296,40.26565l14.4991,0l1.63193,-7.01445l17.76296,0zm-82.34985,-33.2512l0,40.26565l11.298,0l0,-22.79697l1.63193,0l17.76296,22.79697l12.92993,0l0,-40.26565l-12.92993,0l0,22.79697l-1.63193,0l-17.76296,-22.79697l-11.298,0zm-24.16516,40.26565l12.92993,0l0,-40.26565l-12.92993,0l0,40.26565zm-54.92082,-40.26565l0,40.26565l12.92993,0l0,-17.53613l17.76296,0l0,17.53613l12.92993,0l0,-40.26565l-12.92993,0l0,14.0289l-17.76296,0l0,-14.0289l-12.92993,0zm-19.33213,24.48314l0,3.50723c-1.63193,0 -1.63193,1.75361 -3.26387,1.75361c0,1.75361 -1.63193,1.75361 -3.2011,1.75361l-3.2011,0l-4.83303,0c0,0 -1.63193,-1.75361 -3.2011,-1.75361c0,-1.75361 -1.63193,-1.75361 -1.63193,-3.50723l0,-7.01445l0,-5.19339c0,0 1.63193,-1.75361 1.63193,-3.50723c1.63193,0 1.63193,-1.75361 3.2011,-1.75361c1.63193,-1.75361 3.2011,-1.75361 4.83303,-1.75361l3.2011,0c0,0 1.63193,0 1.63193,1.75361l1.63193,0l1.63193,1.75361l1.63193,1.75361l11.298,-1.75361c0,-1.75361 -1.63193,-3.50723 -3.2011,-3.50723c0,-1.75361 -1.63193,-3.50723 -3.2011,-5.26084c-1.63193,0 -4.83303,-1.75361 -6.46497,-1.75361l-8.0969,0l-9.7916,0c-3.2011,1.75361 -4.83303,3.50723 -8.0969,5.26084c-1.63193,1.75361 -3.2011,3.50723 -3.2011,5.26084c-1.63193,3.50723 -1.63193,5.26084 -1.63193,8.76806l0,7.01445c0,1.75361 1.63193,3.50723 3.2011,5.26084c0,1.75361 1.63193,3.50723 3.26387,3.50723c1.63193,1.75361 3.2011,3.50723 4.83303,3.50723c1.63193,0 3.2011,1.75361 4.83303,1.75361l8.0969,0l4.83303,0c1.63193,0 3.26387,-1.75361 4.83303,-1.75361c1.63193,0 1.63193,-1.75361 3.2011,-1.75361c1.63193,0 1.63193,-1.75361 3.2011,-1.75361c1.63193,-1.75361 1.63193,-3.50723 1.63193,-3.50723c1.63193,-1.75361 1.63193,-3.50723 1.63193,-3.50723l-11.23523,-3.57467z" class="st0"/>
  </g>
 </g>
</svg>