<?xml version="1.0" encoding="utf-8"?>
<!-- Generator: Adobe Illustrator 21.0.0, SVG Export Plug-In . SVG Version: 6.00 Build 0)  -->
<svg version="1.1" id="图层_1" xmlns="http://www.w3.org/2000/svg" xmlns:xlink="http://www.w3.org/1999/xlink" x="0px" y="0px"
	 viewBox="0 0 1600 1600" style="enable-background:new 0 0 1600 1600;" xml:space="preserve">
<style type="text/css">
	.st0{fill-rule:evenodd;clip-rule:evenodd;fill:#00469D;}
</style>
<path class="st0" d="M651.2,457.2c4.5,9.1,9,22.7,9,31.8c-85.4,40.9-143.8,86.3-148.3,145.3c4.5,50,53.9,68.1,121.4,77.2
	c18-136.2,58.5-276.9,157.4-299.6c71.9-13.6,121.4,49.9,152.8,113.5c-13.5,4.5-22.5,9.1-36,13.6c-13.5-13.6-27-22.7-44.9-13.6
	c-49.5,36.3-67.4,99.9-76.4,168c116.9-13.6,274.2-95.3,274.2-172.5c0-50-36-63.6-80.9-72.6c-4.5-13.6-4.5-31.8-9-45.4
	c134.9-4.5,251.7,68.1,238.3,154.3c-36,177.1-274.2,249.7-422.6,281.5c0,136.2,22.5,217.9,71.9,231.5c22.5,0,45-36.3,67.4-154.3
	c22.5-4.5,40.5-13.6,62.9-18.2c-22.5,186.1-98.9,295.1-170.8,299.6c-67.4,4.6-125.9-63.6-161.8-168c-13.5-49.9-27-108.9-27-177.1
	c-125.9-13.6-233.8-45.4-238.3-140.7C385.9,611.6,507.3,507.2,651.2,457.2"/>
</svg>
